<svg class="lds-flask" width="200px"  height="200px"  xmlns="http://www.w3.org/2000/svg" xmlns:xlink="http://www.w3.org/1999/xlink" viewBox="0 0 100 100" preserveAspectRatio="xMidYMid" style="background: none;"><defs>
<clipPath id="lds-flask-cpid-b8985b37e44a" clipPathUnits="userSpaceOnUse">
<rect x="0" y="50" width="100" height="50"></rect>
</clipPath>
<pattern id="lds-flask-patid-50b80045aed8e" patternUnits="userSpaceOnUse" x="0" y="0" width="100" height="100">
<rect x="0" y="0" width="100" height="100" fill="#5699d2"></rect><circle cx="89" cy="0" r="3" fill="#1d3f72" transform="translate(0 114.242)">
<animateTransform attributeName="transform" type="translate" values="0 115;0 -15" keyTimes="0;1" dur="4s" begin="-0.64s" repeatCount="indefinite"></animateTransform>
</circle><circle cx="85" cy="0" r="2" fill="#1d3f72" transform="translate(0 65.5267)">
<animateTransform attributeName="transform" type="translate" values="0 118;0 -18" keyTimes="0;1" dur="4s" begin="-2.16s" repeatCount="indefinite"></animateTransform>
</circle><circle cx="89" cy="0" r="3" fill="#1d3f72" transform="translate(0 83.0417)">
<animateTransform attributeName="transform" type="translate" values="0 115;0 -15" keyTimes="0;1" dur="4s" begin="-1.6s" repeatCount="indefinite"></animateTransform>
</circle><circle cx="64" cy="0" r="3" fill="#1d3f72" transform="translate(0 -1.24001)">
<animateTransform attributeName="transform" type="translate" values="0 122;0 -22" keyTimes="0;1" dur="4s" begin="-0.04s" repeatCount="indefinite"></animateTransform>
</circle><circle cx="33" cy="0" r="2" fill="#1d3f72" transform="translate(0 70.7783)">
<animateTransform attributeName="transform" type="translate" values="0 141;0 -41" keyTimes="0;1" dur="4s" begin="-2.16s" repeatCount="indefinite"></animateTransform>
</circle><circle cx="45" cy="0" r="3" fill="#1d3f72" transform="translate(0 42.7583)">
<animateTransform attributeName="transform" type="translate" values="0 105;0 -5" keyTimes="0;1" dur="4s" begin="-2.88s" repeatCount="indefinite"></animateTransform>
</circle><circle cx="50" cy="0" r="3" fill="#1d3f72" transform="translate(0 82.7817)">
<animateTransform attributeName="transform" type="translate" values="0 139;0 -39" keyTimes="0;1" dur="4s" begin="-1.88s" repeatCount="indefinite"></animateTransform>
</circle><circle cx="23" cy="0" r="3" fill="#1d3f72" transform="translate(0 36.2)">
<animateTransform attributeName="transform" type="translate" values="0 122;0 -22" keyTimes="0;1" dur="4s" begin="-3s" repeatCount="indefinite"></animateTransform>
</circle><circle cx="38" cy="0" r="3" fill="#1d3f72" transform="translate(0 134.008)">
<animateTransform attributeName="transform" type="translate" values="0 135;0 -35" keyTimes="0;1" dur="4s" begin="-0.64s" repeatCount="indefinite"></animateTransform>
</circle><circle cx="24" cy="0" r="2" fill="#1d3f72" transform="translate(0 43.1883)">
<animateTransform attributeName="transform" type="translate" values="0 111;0 -11" keyTimes="0;1" dur="4s" begin="-2.84s" repeatCount="indefinite"></animateTransform>
</circle><circle cx="42" cy="0" r="2" fill="#1d3f72" transform="translate(0 18.4883)">
<animateTransform attributeName="transform" type="translate" values="0 123;0 -23" keyTimes="0;1" dur="4s" begin="-3.48s" repeatCount="indefinite"></animateTransform>
</circle><circle cx="61" cy="0" r="3" fill="#1d3f72" transform="translate(0 96.8833)">
<animateTransform attributeName="transform" type="translate" values="0 108;0 -8" keyTimes="0;1" dur="4s" begin="-1s" repeatCount="indefinite"></animateTransform>
</circle><circle cx="96" cy="0" r="2" fill="#1d3f72" transform="translate(0 22.2183)">
<animateTransform attributeName="transform" type="translate" values="0 129;0 -29" keyTimes="0;1" dur="4s" begin="-3.32s" repeatCount="indefinite"></animateTransform>
</circle><circle cx="72" cy="0" r="3" fill="#1d3f72" transform="translate(0 93.0267)">
<animateTransform attributeName="transform" type="translate" values="0 106;0 -6" keyTimes="0;1" dur="4s" begin="-1.08s" repeatCount="indefinite"></animateTransform>
</circle><circle cx="35" cy="0" r="3" fill="#1d3f72" transform="translate(0 5.97)">
<animateTransform attributeName="transform" type="translate" values="0 152;0 -52" keyTimes="0;1" dur="4s" begin="-3.48s" repeatCount="indefinite"></animateTransform>
</circle><circle cx="63" cy="0" r="2" fill="#1d3f72" transform="translate(0 45.7633)">
<animateTransform attributeName="transform" type="translate" values="0 132;0 -32" keyTimes="0;1" dur="4s" begin="-2.72s" repeatCount="indefinite"></animateTransform>
</circle><circle cx="29" cy="0" r="3" fill="#1d3f72" transform="translate(0 63.75)">
<animateTransform attributeName="transform" type="translate" values="0 116;0 -16" keyTimes="0;1" dur="4s" begin="-2.2s" repeatCount="indefinite"></animateTransform>
</circle><circle cx="56" cy="0" r="2" fill="#1d3f72" transform="translate(0 22.2183)">
<animateTransform attributeName="transform" type="translate" values="0 129;0 -29" keyTimes="0;1" dur="4s" begin="-3.32s" repeatCount="indefinite"></animateTransform>
</circle><circle cx="1" cy="0" r="3" fill="#1d3f72" transform="translate(0 -17.9067)">
<animateTransform attributeName="transform" type="translate" values="0 138;0 -38" keyTimes="0;1" dur="4s" begin="-0.16s" repeatCount="indefinite"></animateTransform>
</circle><circle cx="45" cy="0" r="2" fill="#1d3f72" transform="translate(0 87.065)">
<animateTransform attributeName="transform" type="translate" values="0 113;0 -13" keyTimes="0;1" dur="4s" begin="-1.44s" repeatCount="indefinite"></animateTransform>
</circle><circle cx="41" cy="0" r="3" fill="#1d3f72" transform="translate(0 -18.0167)">
<animateTransform attributeName="transform" type="translate" values="0 120;0 -20" keyTimes="0;1" dur="4s" begin="-0.56s" repeatCount="indefinite"></animateTransform>
</circle><circle cx="34" cy="0" r="2" fill="#1d3f72" transform="translate(0 107.132)">
<animateTransform attributeName="transform" type="translate" values="0 109;0 -9" keyTimes="0;1" dur="4s" begin="-0.68s" repeatCount="indefinite"></animateTransform>
</circle><circle cx="63" cy="0" r="2" fill="#1d3f72" transform="translate(0 3.66)">
<animateTransform attributeName="transform" type="translate" values="0 134;0 -34" keyTimes="0;1" dur="4s" begin="-3.72s" repeatCount="indefinite"></animateTransform>
</circle><circle cx="60" cy="0" r="2" fill="#1d3f72" transform="translate(0 37.7233)">
<animateTransform attributeName="transform" type="translate" values="0 108;0 -8" keyTimes="0;1" dur="4s" begin="-3.04s" repeatCount="indefinite"></animateTransform>
</circle><circle cx="23" cy="0" r="3" fill="#1d3f72" transform="translate(0 -9.16667)">
<animateTransform attributeName="transform" type="translate" values="0 150;0 -50" keyTimes="0;1" dur="4s" begin="-3.8s" repeatCount="indefinite"></animateTransform>
</circle><circle cx="52" cy="0" r="3" fill="#1d3f72" transform="translate(0 33.005)">
<animateTransform attributeName="transform" type="translate" values="0 149;0 -49" keyTimes="0;1" dur="4s" begin="-2.96s" repeatCount="indefinite"></animateTransform>
</circle><circle cx="7" cy="0" r="2" fill="#1d3f72" transform="translate(0 126.468)">
<animateTransform attributeName="transform" type="translate" values="0 147;0 -47" keyTimes="0;1" dur="4s" begin="-1.04s" repeatCount="indefinite"></animateTransform>
</circle><circle cx="29" cy="0" r="3" fill="#1d3f72" transform="translate(0 -45.9617)">
<animateTransform attributeName="transform" type="translate" values="0 153;0 -53" keyTimes="0;1" dur="4s" begin="-0.48s" repeatCount="indefinite"></animateTransform>
</circle><circle cx="97" cy="0" r="2" fill="#1d3f72" transform="translate(0 -37.3833)">
<animateTransform attributeName="transform" type="translate" values="0 148;0 -48" keyTimes="0;1" dur="4s" begin="-0.4s" repeatCount="indefinite"></animateTransform>
</circle><circle cx="89" cy="0" r="3" fill="#1d3f72" transform="translate(0 5.68667)">
<animateTransform attributeName="transform" type="translate" values="0 118;0 -18" keyTimes="0;1" dur="4s" begin="-3.92s" repeatCount="indefinite"></animateTransform>
</circle><circle cx="12" cy="0" r="3" fill="#1d3f72" transform="translate(0 117.007)">
<animateTransform attributeName="transform" type="translate" values="0 142;0 -42" keyTimes="0;1" dur="4s" begin="-1.16s" repeatCount="indefinite"></animateTransform>
</circle><circle cx="94" cy="0" r="3" fill="#1d3f72" transform="translate(0 26.9583)">
<animateTransform attributeName="transform" type="translate" values="0 129;0 -29" keyTimes="0;1" dur="4s" begin="-3.2s" repeatCount="indefinite"></animateTransform>
</circle><circle cx="1" cy="0" r="2" fill="#1d3f72" transform="translate(0 28.4417)">
<animateTransform attributeName="transform" type="translate" values="0 115;0 -15" keyTimes="0;1" dur="4s" begin="-3.28s" repeatCount="indefinite"></animateTransform>
</circle><circle cx="99" cy="0" r="3" fill="#1d3f72" transform="translate(0 67.88)">
<animateTransform attributeName="transform" type="translate" values="0 122;0 -22" keyTimes="0;1" dur="4s" begin="-2.12s" repeatCount="indefinite"></animateTransform>
</circle><circle cx="53" cy="0" r="3" fill="#1d3f72" transform="translate(0 35.2367)">
<animateTransform attributeName="transform" type="translate" values="0 136;0 -36" keyTimes="0;1" dur="4s" begin="-2.96s" repeatCount="indefinite"></animateTransform>
</circle><circle cx="33" cy="0" r="2" fill="#1d3f72" transform="translate(0 70.97)">
<animateTransform attributeName="transform" type="translate" values="0 104;0 -4" keyTimes="0;1" dur="4s" begin="-1.84s" repeatCount="indefinite"></animateTransform>
</circle><circle cx="18" cy="0" r="2" fill="#1d3f72" transform="translate(0 32.07)">
<animateTransform attributeName="transform" type="translate" values="0 116;0 -16" keyTimes="0;1" dur="4s" begin="-3.16s" repeatCount="indefinite"></animateTransform>
</circle><circle cx="28" cy="0" r="3" fill="#1d3f72" transform="translate(0 15.4417)">
<animateTransform attributeName="transform" type="translate" values="0 115;0 -15" keyTimes="0;1" dur="4s" begin="-3.68s" repeatCount="indefinite"></animateTransform>
</circle><circle cx="4" cy="0" r="3" fill="#1d3f72" transform="translate(0 100.117)">
<animateTransform attributeName="transform" type="translate" values="0 112;0 -12" keyTimes="0;1" dur="4s" begin="-1s" repeatCount="indefinite"></animateTransform>
</circle><circle cx="13" cy="0" r="3" fill="#1d3f72" transform="translate(0 -11.46)">
<animateTransform attributeName="transform" type="translate" values="0 134;0 -34" keyTimes="0;1" dur="4s" begin="-0.08s" repeatCount="indefinite"></animateTransform>
</circle><circle cx="89" cy="0" r="2" fill="#1d3f72" transform="translate(0 4.08334)">
<animateTransform attributeName="transform" type="translate" values="0 108;0 -8" keyTimes="0;1" dur="4s" begin="-0.2s" repeatCount="indefinite"></animateTransform>
</circle><circle cx="3" cy="0" r="2" fill="#1d3f72" transform="translate(0 68.515)">
<animateTransform attributeName="transform" type="translate" values="0 119;0 -19" keyTimes="0;1" dur="4s" begin="-2.08s" repeatCount="indefinite"></animateTransform>
</circle><circle cx="71" cy="0" r="3" fill="#1d3f72" transform="translate(0 48.2267)">
<animateTransform attributeName="transform" type="translate" values="0 106;0 -6" keyTimes="0;1" dur="4s" begin="-2.68s" repeatCount="indefinite"></animateTransform>
</circle><circle cx="59" cy="0" r="3" fill="#1d3f72" transform="translate(0 44.8667)">
<animateTransform attributeName="transform" type="translate" values="0 106;0 -6" keyTimes="0;1" dur="4s" begin="-2.8s" repeatCount="indefinite"></animateTransform>
</circle><circle cx="12" cy="0" r="3" fill="#1d3f72" transform="translate(0 -41.8417)">
<animateTransform attributeName="transform" type="translate" values="0 153;0 -53" keyTimes="0;1" dur="4s" begin="-0.4s" repeatCount="indefinite"></animateTransform>
</circle><circle cx="72" cy="0" r="3" fill="#1d3f72" transform="translate(0 63.3717)">
<animateTransform attributeName="transform" type="translate" values="0 121;0 -21" keyTimes="0;1" dur="4s" begin="-2.24s" repeatCount="indefinite"></animateTransform>
</circle><circle cx="38" cy="0" r="2" fill="#1d3f72" transform="translate(0 80.525)">
<animateTransform attributeName="transform" type="translate" values="0 149;0 -49" keyTimes="0;1" dur="4s" begin="-2s" repeatCount="indefinite"></animateTransform>
</circle><circle cx="36" cy="0" r="3" fill="#1d3f72" transform="translate(0 -15.8183)">
<animateTransform attributeName="transform" type="translate" values="0 151;0 -51" keyTimes="0;1" dur="4s" begin="-3.92s" repeatCount="indefinite"></animateTransform>
</circle><circle cx="30" cy="0" r="3" fill="#1d3f72" transform="translate(0 38.67)">
<animateTransform attributeName="transform" type="translate" values="0 116;0 -16" keyTimes="0;1" dur="4s" begin="-2.96s" repeatCount="indefinite"></animateTransform>
</circle><circle cx="23" cy="0" r="2" fill="#1d3f72" transform="translate(0 112.638)">
<animateTransform attributeName="transform" type="translate" values="0 141;0 -41" keyTimes="0;1" dur="4s" begin="-1.24s" repeatCount="indefinite"></animateTransform>
</circle>      </pattern></defs>

      <path fill="url(#lds-flask-patid-50b80045aed8e)" clip-path="url(#lds-flask-cpid-b8985b37e44a)" d="M59,37.3V18.9c3-0.8,5.1-3.6,5.1-6.8C64.1,8.2,61,5,57.1,5H42.9c-3.9,0-7.1,3.2-7.1,7.1c0,3.2,2.2,6,5.1,6.8v18.4c-11.9,3.8-20.6,15-20.6,28.2C20.4,81.8,33.7,95,50,95s29.6-13.2,29.6-29.6C79.6,52.2,70.9,41.1,59,37.3z"></path>

      <path fill="none" stroke="#86bde5" stroke-width="4" d="M59,37.3V18.9c3-0.8,5.1-3.6,5.1-6.8C64.1,8.2,61,5,57.1,5H42.9c-3.9,0-7.1,3.2-7.1,7.1c0,3.2,2.2,6,5.1,6.8v18.4c-11.9,3.8-20.6,15-20.6,28.2C20.4,81.8,33.7,95,50,95s29.6-13.2,29.6-29.6C79.6,52.2,70.9,41.1,59,37.3z"></path>
</svg>